<svg width="195" height="197" viewBox="0 0 195 197" fill="none" xmlns="http://www.w3.org/2000/svg">
<g clip-path="url(#clip0_25:10)">
<path d="M163.5 0.888916H31.5002C14.1032 0.888916 0.000183105 15.0059 0.000183105 32.42V165.358C0.000183105 182.772 14.1032 196.889 31.5002 196.889H163.5C180.897 196.889 195 182.772 195 165.358V32.42C195 15.0059 180.897 0.888916 163.5 0.888916Z" fill="url(#paint0_linear_25:10)"/>
<path d="M98.9726 85.2671C103.953 85.2672 107.729 84.1829 110.301 82.0143C112.873 79.8458 114.159 76.6472 114.159 72.4184C114.159 68.244 112.873 65.0724 110.301 62.9038C107.729 60.6811 103.953 59.5697 98.9726 59.5696H81.4878V85.2671H98.9726ZM100.04 138.37C106.388 138.37 111.149 137.042 114.323 134.385C117.552 131.729 119.166 127.717 119.166 122.35C119.166 117.091 117.579 113.16 114.405 110.558C111.231 107.902 106.443 106.573 100.04 106.573H81.4878V138.37H100.04ZM129.427 94.7003C136.213 96.6521 141.467 100.257 145.188 105.516C148.91 110.775 150.77 117.226 150.77 124.871C150.77 136.581 146.775 145.309 138.785 151.056C130.795 156.803 118.646 159.676 102.338 159.676H49.8838V38.2634H97.3309C114.35 38.2635 126.664 40.8116 134.271 45.9076C141.932 51.0039 145.763 59.1631 145.763 70.3853C145.763 76.2947 144.367 81.3366 141.577 85.511C138.785 89.6314 134.736 92.6945 129.427 94.7003Z" fill="white"/>
</g>
<defs>
<linearGradient id="paint0_linear_25:10" x1="11.2502" y1="186.725" x2="183.172" y2="11.9725" gradientUnits="userSpaceOnUse">
<stop stop-color="#070135"/>
<stop offset="1" stop-color="#612D50"/>
</linearGradient>
<clipPath id="clip0_25:10">
<rect width="195" height="196" fill="white" transform="translate(0 0.888672)"/>
</clipPath>
</defs>
</svg>
