<svg width="210" height="202" viewBox="0 0 210 202" fill="none" xmlns="http://www.w3.org/2000/svg">
<path d="M13.3451 47.4309C-5.25417 74.1168 -2.95007 108.826 11.2688 137.165C11.5929 137.857 11.9521 138.513 12.3026 139.169C12.5041 139.624 12.7319 140.044 12.9772 140.473C13.0911 140.718 13.2487 140.972 13.3889 141.199C13.6167 141.654 13.862 142.091 14.0986 142.529L15.474 144.848C15.7281 145.276 15.9734 145.696 16.2625 146.125C16.7443 146.947 17.3138 147.761 17.8132 148.584C18.0409 148.925 18.2512 149.266 18.5053 149.607C19.3549 150.94 20.261 152.236 21.2211 153.492C21.9045 154.428 22.5878 155.338 23.3237 156.248C23.5603 156.581 23.8231 156.913 24.0684 157.246L26.0045 159.599C26.2411 159.87 26.4776 160.185 26.7317 160.465C27.5903 161.498 28.5014 162.504 29.4125 163.519C29.4125 163.536 29.4388 163.554 29.4563 163.58C30.5658 164.981 31.81 166.271 33.1709 167.43C33.8718 168.147 34.5727 168.865 35.3173 169.565L36.2022 170.414C37.1746 171.323 38.1471 172.233 39.1721 173.108C39.1896 173.108 39.1984 173.126 39.2159 173.135L39.7153 173.572C40.6089 174.351 41.5113 175.129 42.4311 175.847L43.5263 176.766C44.2709 177.361 45.0419 177.929 45.8041 178.516L46.9956 179.425C47.8103 180.038 48.6776 180.642 49.5099 181.237C49.8165 181.455 50.1232 181.674 50.4386 181.875L50.6926 182.077L53.1544 183.695L54.2057 184.395C55.4936 185.218 56.7727 185.996 58.043 186.766C58.4109 186.95 58.7789 187.151 59.1206 187.361C60.0667 187.904 61.048 188.455 62.0029 188.962C62.5285 189.26 63.0717 189.514 63.6149 189.785C64.272 190.152 64.9553 190.511 65.6562 190.879C65.8256 190.93 65.9899 190.998 66.1468 191.08C66.4359 191.211 66.7075 191.351 66.9878 191.491C68.0391 192.016 69.1342 192.515 70.2731 193.013C70.4834 193.101 70.7112 193.188 70.939 193.311C72.2005 193.862 73.4621 194.387 74.7675 194.903C75.0653 194.991 75.3807 195.14 75.6873 195.253C76.8701 195.699 78.0878 196.154 79.2881 196.583L79.7261 196.741C81.0665 197.196 82.3894 197.633 83.7473 198.053C84.0627 198.141 84.3869 198.254 84.7198 198.342C86.1128 198.762 87.4619 199.261 88.8637 199.532C178.75 215.893 204.875 145.556 204.875 145.556C182.929 174.097 143.987 181.622 107.104 173.248C105.737 172.933 104.37 172.496 102.995 172.093C101.328 171.602 99.6715 171.074 98.0275 170.51L97.4843 170.3C96.2929 169.897 95.1452 169.451 93.98 169.005C93.6632 168.874 93.3418 168.754 93.0163 168.646C91.7285 168.13 90.4757 167.596 89.2316 167.045C88.96 166.957 88.7322 166.835 88.4607 166.73C87.4022 166.243 86.348 165.747 85.298 165.243C84.9738 165.103 84.6847 164.954 84.3693 164.788C83.5458 164.403 82.7223 163.965 81.9163 163.545C81.3628 163.28 80.8165 163 80.278 162.705C79.288 162.18 78.2981 161.612 77.3081 161.069C77.0102 160.859 76.6686 160.684 76.3269 160.492C75.0352 159.728 73.7559 158.943 72.4896 158.138C72.1373 157.919 71.7926 157.689 71.4558 157.447C70.5262 156.874 69.6146 156.273 68.7225 155.644C68.4158 155.443 68.1355 155.224 67.8201 155.006C66.9499 154.404 66.0911 153.785 65.2444 153.151C64.8765 152.853 64.4822 152.573 64.088 152.276C63.317 151.672 62.5373 151.095 61.7663 150.456L60.7326 149.634C59.7404 148.834 58.7648 148.014 57.8064 147.175C57.7067 147.078 57.5982 146.99 57.4823 146.912L54.4423 144.148L53.5662 143.325C52.8478 142.599 52.1119 141.899 51.376 141.182L50.5262 140.307C49.6007 139.387 48.6981 138.445 47.8191 137.48L47.6877 137.34C46.759 136.326 45.8566 135.293 44.9455 134.243C44.709 133.972 44.4899 133.683 44.2446 133.394L42.2647 130.971C41.2545 129.677 40.2615 128.371 39.286 127.051C18.8294 99.1578 11.4265 60.6601 27.8005 29.0832L13.3451 47.4309ZM71.0529 24.9535C57.5699 44.2811 58.3321 70.127 68.8276 90.5658C70.5621 94.0062 72.5444 97.3164 74.7587 100.47C76.7737 103.358 78.9989 106.77 81.6973 109.097C82.6347 110.165 83.651 111.197 84.711 112.238L85.4995 113.026C86.4982 113.988 87.5233 114.933 88.5658 115.869L88.6972 115.983C89.8788 117.013 91.0882 118.011 92.3242 118.975C92.6221 119.177 92.8761 119.413 93.1652 119.614C94.3918 120.559 95.627 121.469 96.9061 122.37L97.0375 122.449C97.5807 122.843 98.1589 123.201 98.7722 123.586C99.0175 123.744 99.2978 123.954 99.5607 124.111C100.489 124.706 101.4 125.266 102.338 125.835C102.487 125.896 102.618 125.975 102.758 126.036C103.547 126.517 104.405 126.981 105.229 127.41C105.518 127.585 105.798 127.716 106.096 127.882C106.683 128.171 107.261 128.477 107.822 128.775L108.103 128.897C109.285 129.475 110.494 130.017 111.677 130.56C111.975 130.673 112.229 130.77 112.483 130.892C113.455 131.312 114.445 131.715 115.418 132.091C115.856 132.24 116.268 132.415 116.679 132.546C117.573 132.878 118.51 133.184 119.395 133.491L120.622 133.884C121.901 134.278 123.197 134.794 124.547 135.013C193.933 146.501 210 93.1294 210 93.1294C195.536 113.918 167.545 123.823 137.714 116.088C136.395 115.747 135.086 115.368 133.789 114.951C133.369 114.837 133.001 114.706 132.598 114.583C131.687 114.268 130.749 113.962 129.864 113.629L128.603 113.157C127.622 112.763 126.623 112.396 125.668 111.976C125.37 111.845 125.099 111.757 124.871 111.626C123.644 111.075 122.409 110.532 121.217 109.946L119.413 109.01L118.37 108.485C117.564 108.065 116.82 107.627 116.049 107.172C115.862 107.084 115.681 106.984 115.505 106.875C114.577 106.297 113.613 105.737 112.728 105.142C112.43 104.976 112.159 104.775 111.878 104.6L110.056 103.41C108.795 102.535 107.559 101.59 106.315 100.68C106.035 100.426 105.763 100.216 105.492 99.989C92.3768 89.6908 82.0302 75.6129 77.1241 59.6714C71.9552 43.0999 73.0941 24.516 82.0214 9.43193L71.0529 24.9535ZM119.579 8.14576C111.624 19.8001 110.862 34.2717 116.338 47.1247C122.155 60.7738 134.052 71.492 147.912 76.5666C148.481 76.7854 149.033 76.9691 149.62 77.1791L150.391 77.4153C151.197 77.6691 152.012 77.9666 152.844 78.1503C191.182 85.5349 201.555 58.4902 204.349 54.518C195.22 67.6072 179.915 70.7482 161.141 66.1898C159.609 65.8075 158.1 65.3401 156.62 64.7898C154.781 64.1443 152.976 63.4025 151.215 62.5675C147.881 60.9536 144.712 59.0196 141.753 56.7928C124.932 44.0711 114.515 19.7826 125.484 0" fill="#0047FF"/>
</svg>
