<svg width="219" height="220" viewBox="0 0 219 220" fill="none" xmlns="http://www.w3.org/2000/svg">
<g clip-path="url(#clip0_24:16)">
<path d="M219 0.888672H0V219.889H219V0.888672Z" fill="#F7DF1E"/>
<path d="M147.112 171.983C151.524 179.186 157.263 184.48 167.413 184.48C175.94 184.48 181.388 180.218 181.388 174.33C181.388 167.273 175.791 164.774 166.405 160.668L161.261 158.461C146.41 152.134 136.545 144.209 136.545 127.453C136.545 112.019 148.305 100.27 166.683 100.27C179.768 100.27 189.174 104.823 195.953 116.747L179.928 127.036C176.399 120.71 172.593 118.217 166.683 118.217C160.656 118.217 156.835 122.041 156.835 127.036C156.835 133.21 160.659 135.709 169.489 139.533L174.633 141.737C192.119 149.235 201.991 156.879 201.991 174.066C201.991 192.594 187.436 202.744 167.89 202.744C148.778 202.744 136.43 193.637 130.388 181.699L147.112 171.983ZM74.4148 173.767C77.6477 179.502 80.5886 184.352 87.6591 184.352C94.4203 184.352 98.6856 181.706 98.6856 171.42V101.444H119.265V171.698C119.265 193.007 106.771 202.706 88.5351 202.706C72.058 202.706 62.5158 194.179 57.6631 183.908L74.4148 173.767Z" fill="black"/>
</g>
<defs>
<clipPath id="clip0_24:16">
<rect width="219" height="219" fill="white" transform="translate(0 0.888672)"/>
</clipPath>
</defs>
</svg>
