<svg width="186" height="210" viewBox="0 0 186 210" fill="none" xmlns="http://www.w3.org/2000/svg">
<path d="M93 209.61C90.1118 209.61 87.4161 208.84 84.913 207.492L59.3044 192.279C55.4534 190.161 57.3789 189.391 58.5342 189.006C63.7329 187.272 64.6956 186.887 70.087 183.806C70.6646 183.421 71.4348 183.614 72.0124 183.999L91.6522 195.745C92.4224 196.131 93.3851 196.131 93.9627 195.745L170.789 151.262C171.559 150.877 171.944 150.107 171.944 149.144V60.3701C171.944 59.4073 171.559 58.637 170.789 58.2518L93.9627 13.9612C93.1926 13.5761 92.2298 13.5761 91.6522 13.9612L14.8261 58.2518C14.0559 58.637 13.6708 59.5998 13.6708 60.3701V149.144C13.6708 149.914 14.0559 150.877 14.8261 151.262L35.8137 163.394C47.1739 169.171 54.2981 162.431 54.2981 155.691V68.0728C54.2981 66.9174 55.2609 65.762 56.6087 65.762H66.4286C67.5839 65.762 68.7391 66.7248 68.7391 68.0728V155.691C68.7391 170.904 60.4596 179.762 46.0186 179.762C41.5901 179.762 38.1242 179.762 28.3043 174.948L8.08696 163.394C3.08075 160.505 0 155.114 0 149.337V60.5627C0 54.7856 3.08075 49.3937 8.08696 46.5052L84.913 2.02196C89.7267 -0.673988 96.2733 -0.673988 101.087 2.02196L177.913 46.5052C182.919 49.3937 186 54.7856 186 60.5627V149.337C186 155.114 182.919 160.505 177.913 163.394L101.087 207.877C98.5838 209.033 95.6957 209.61 93 209.61ZM116.683 148.566C82.9876 148.566 76.0559 133.161 76.0559 120.066C76.0559 118.911 77.0186 117.755 78.3665 117.755H88.3789C89.5342 117.755 90.4969 118.526 90.4969 119.681C92.0373 129.887 96.4658 134.894 116.876 134.894C133.05 134.894 139.981 131.235 139.981 122.57C139.981 117.563 138.056 113.904 112.832 111.401C91.8447 109.282 78.7516 104.661 78.7516 87.9073C78.7516 72.3093 91.8447 63.066 113.795 63.066C138.441 63.066 150.571 71.539 152.112 90.0256C152.112 90.6033 151.919 91.181 151.534 91.7587C151.149 92.1438 150.571 92.529 149.994 92.529H139.981C139.019 92.529 138.056 91.7587 137.863 90.7959C135.553 80.2046 129.584 76.7384 113.795 76.7384C96.0807 76.7384 93.9627 82.9006 93.9627 87.5222C93.9627 93.1067 96.4658 94.8398 120.342 97.9209C144.025 101.002 155.193 105.431 155.193 121.992C155 138.938 141.137 148.566 116.683 148.566Z" fill="#539E43"/>
</svg>
