<svg width="358" height="254" viewBox="0 0 358 254" fill="none" xmlns="http://www.w3.org/2000/svg">
<path d="M283.33 126.9C283.33 113.088 266.023 99.9977 239.489 91.8803C245.612 64.8505 242.891 43.3457 230.899 36.4608C228.135 34.8458 224.903 34.0808 221.374 34.0808V43.5582C223.33 43.5582 224.903 43.9407 226.222 44.6632C232.005 47.9782 234.514 60.6006 232.558 76.8354C232.09 80.8304 231.324 85.0378 230.389 89.3303C222.054 87.2903 212.954 85.7178 203.387 84.6978C197.646 76.8354 191.693 69.6955 185.697 63.448C199.56 50.5707 212.572 43.5157 221.417 43.5157V34.0383C209.723 34.0383 194.415 42.3683 178.936 56.8181C163.458 42.4532 148.15 34.2083 136.456 34.2083V43.6857C145.258 43.6857 158.313 50.6982 172.175 63.4905C166.222 69.738 160.269 76.8354 154.613 84.6978C145.003 85.7178 135.903 87.2903 127.569 89.3728C126.591 85.1228 125.868 81.0004 125.357 77.0479C123.359 60.8131 125.825 48.1907 131.566 44.8332C132.841 44.0682 134.5 43.7282 136.456 43.7282V34.2508C132.884 34.2508 129.652 35.0158 126.846 36.6308C114.897 43.5157 112.218 64.978 118.384 91.9228C91.9344 100.083 74.7126 113.13 74.7126 126.9C74.7126 140.712 92.0194 153.802 118.554 161.92C112.43 188.949 115.152 210.454 127.143 217.339C129.907 218.954 133.139 219.719 136.711 219.719C148.405 219.719 163.713 211.389 179.191 196.939C194.67 211.304 209.978 219.549 221.672 219.549C225.244 219.549 228.475 218.784 231.282 217.169C243.231 210.284 245.91 188.822 239.744 161.877C266.108 153.76 283.33 140.67 283.33 126.9ZM227.965 98.5527C226.392 104.035 224.436 109.688 222.224 115.34C220.481 111.94 218.653 108.54 216.654 105.14C214.698 101.74 212.614 98.4252 210.531 95.1952C216.569 96.0877 222.395 97.1927 227.965 98.5527ZM208.49 143.815C205.173 149.552 201.771 154.992 198.242 160.05C191.906 160.602 185.485 160.9 179.021 160.9C172.6 160.9 166.179 160.602 159.886 160.092C156.357 155.035 152.912 149.637 149.595 143.942C146.364 138.375 143.43 132.722 140.751 127.027C143.387 121.332 146.364 115.638 149.553 110.07C152.87 104.333 156.271 98.8927 159.801 93.8352C166.137 93.2827 172.558 92.9852 179.021 92.9852C185.442 92.9852 191.863 93.2827 198.157 93.7927C201.686 98.8502 205.13 104.248 208.447 109.943C211.679 115.51 214.613 121.162 217.292 126.857C214.613 132.552 211.679 138.247 208.49 143.815ZM222.224 138.29C224.521 143.985 226.477 149.68 228.093 155.205C222.522 156.565 216.654 157.712 210.573 158.605C212.657 155.332 214.74 151.975 216.697 148.532C218.653 145.132 220.481 141.69 222.224 138.29ZM179.106 183.637C175.152 179.557 171.197 175.009 167.285 170.037C171.112 170.207 175.024 170.334 178.979 170.334C182.976 170.334 186.93 170.249 190.8 170.037C186.973 175.009 183.018 179.557 179.106 183.637ZM147.469 158.605C141.431 157.712 135.605 156.607 130.035 155.247C131.608 149.765 133.564 144.112 135.775 138.46C137.519 141.86 139.347 145.26 141.346 148.66C143.345 152.06 145.386 155.375 147.469 158.605ZM178.894 70.163C182.848 74.2429 186.803 78.7904 190.715 83.7628C186.888 83.5928 182.976 83.4653 179.021 83.4653C175.024 83.4653 171.069 83.5503 167.2 83.7628C171.027 78.7904 174.982 74.2429 178.894 70.163ZM147.427 95.1952C145.343 98.4677 143.259 101.825 141.303 105.268C139.347 108.668 137.519 112.068 135.775 115.468C133.479 109.773 131.523 104.078 129.907 98.5527C135.478 97.2352 141.346 96.0877 147.427 95.1952ZM108.944 148.405C93.8905 141.987 84.1527 133.572 84.1527 126.9C84.1527 120.227 93.8905 111.77 108.944 105.395C112.601 103.823 116.598 102.42 120.722 101.103C123.146 109.433 126.335 118.103 130.29 126.985C126.378 135.825 123.231 144.452 120.85 152.74C116.64 151.422 112.643 149.977 108.944 148.405ZM131.821 209.137C126.038 205.822 123.529 193.199 125.485 176.964C125.953 172.969 126.718 168.762 127.654 164.47C135.988 166.51 145.088 168.082 154.656 169.102C160.396 176.964 166.349 184.104 172.345 190.352C158.483 203.229 145.471 210.284 136.626 210.284C134.712 210.242 133.097 209.859 131.821 209.137ZM232.685 176.752C234.684 192.987 232.217 205.609 226.477 208.967C225.201 209.732 223.543 210.072 221.587 210.072C212.784 210.072 199.73 203.059 185.867 190.267C191.821 184.019 197.774 176.922 203.429 169.06C213.04 168.04 222.139 166.467 230.474 164.385C231.452 168.677 232.217 172.799 232.685 176.752ZM249.056 148.405C245.399 149.977 241.402 151.38 237.278 152.697C234.854 144.367 231.665 135.697 227.71 126.815C231.622 117.975 234.769 109.348 237.15 101.06C241.36 102.378 245.357 103.823 249.099 105.395C264.152 111.813 273.89 120.227 273.89 126.9C273.847 133.572 264.109 142.03 249.056 148.405Z" fill="#61DAFB"/>
<path d="M178.979 146.322C189.711 146.322 198.412 137.626 198.412 126.9C198.412 116.173 189.711 107.478 178.979 107.478C168.246 107.478 159.546 116.173 159.546 126.9C159.546 137.626 168.246 146.322 178.979 146.322Z" fill="#61DAFB"/>
</svg>
