<svg width="281" height="281" viewBox="0 0 281 281" fill="none" xmlns="http://www.w3.org/2000/svg">
<path d="M77.275 112.401L110.293 203.023C87.11 191.783 70.9525 167.898 70.9525 140.501C70.9525 130.666 73.06 120.831 77.275 112.401ZM187.568 136.988C187.568 128.558 184.758 122.236 181.948 118.021C178.435 112.401 174.923 107.483 174.923 101.863C174.923 95.5406 179.84 89.2181 186.865 89.2181H187.568C174.923 77.9781 158.765 70.9531 140.5 70.9531C116.615 70.9531 94.8375 83.5981 82.895 101.863C84.3 101.863 85.705 101.863 87.11 101.863C94.135 101.863 105.375 101.161 105.375 101.161C108.888 101.161 109.59 106.781 106.078 106.781C106.078 106.781 102.565 107.483 98.35 107.483L123.64 182.651L139.095 136.988L128.558 107.483C125.045 107.483 121.533 106.781 121.533 106.781C118.02 106.781 118.02 101.161 122.235 101.161C122.235 101.161 133.475 101.863 140.5 101.863C147.525 101.863 158.765 101.161 158.765 101.161C162.278 101.161 162.98 106.781 159.468 106.781C159.468 106.781 155.955 107.483 151.74 107.483L174.923 182.651L181.948 159.468C184.758 149.633 187.568 142.608 187.568 136.988ZM141.905 146.823L120.83 207.238C127.153 209.346 133.475 210.048 140.5 210.048C148.228 210.048 156.658 208.643 163.683 205.833L162.98 205.131L141.905 146.823ZM201.618 107.483C201.618 109.591 202.32 112.401 202.32 114.508C202.32 121.533 200.915 129.261 196.7 139.096L175.625 200.213C195.998 188.271 210.048 165.791 210.048 140.501C210.048 128.558 206.535 117.318 201.618 107.483Z" fill="#3498D8"/>
<path d="M140.5 45.6626C88.515 45.6626 45.6625 88.5151 45.6625 140.5C45.6625 192.485 88.515 235.338 140.5 235.338C192.485 235.338 235.337 192.485 235.337 140.5C235.337 88.5151 192.485 45.6626 140.5 45.6626ZM140.5 224.098C94.8375 224.098 56.9025 186.865 56.9025 140.5C56.9025 94.8376 94.135 56.9026 140.5 56.9026C186.865 56.9026 224.097 94.8376 224.097 140.5C224.097 186.163 186.162 224.098 140.5 224.098Z" fill="#2980B9"/>
</svg>
